<svg xmlns="http://www.w3.org/2000/svg" viewBox="0 0 149.01 23"><defs><style>.cls-1{font-size:18.04px;font-family:Gotham-Bold, Gotham;font-weight:700;}.cls-1,.cls-5{fill:#e6e6e6;}.cls-2{font-size:8.22px;font-family:Gotham-Light, Gotham;letter-spacing:0.18em;}.cls-2,.cls-4{fill:#0071bc;}.cls-3{letter-spacing:0.2em;}</style></defs><title>logo2</title><g id="Layer_2" data-name="Layer 2"><g id="Layer_1-2" data-name="Layer 1"><text class="cls-1" transform="translate(27.76 17.08)">ALMENY</text><text class="cls-2" transform="translate(107.61 17.15) scale(0.98 1)">S<tspan class="cls-3" x="6.78" y="0">TUDIO</tspan></text><polygon class="cls-4" points="9.98 6.33 9.98 6.22 5.45 8.81 5.34 14.09 9.98 11.39 9.98 6.33"/><path class="cls-4" d="M15.32,14.1h0l.11-5.18L10.7,6.33v5.06l4.64,2.7Z"/><polygon class="cls-4" points="10.33 11.92 5.69 14.62 5.69 14.62 5.69 14.62 5.79 14.67 10.44 17.21 14.78 14.72 14.96 14.62 10.33 11.92"/><polygon class="cls-5" points="4.56 14.98 0 12.49 0 17.56 4.46 20.15 4.56 14.98"/><polygon class="cls-5" points="10.33 5.05 14.65 2.58 10.21 0 5.93 2.49 10.33 5.05"/><polygon class="cls-5" points="16.1 15.1 16.1 20.07 20.41 17.56 20.41 12.59 16.1 15.1"/><polygon class="cls-5" points="2.14 6.39 5.13 8.02 9.45 5.55 5.01 2.97 0.58 5.54 2.14 6.39"/><polygon class="cls-5" points="4.57 13.85 4.58 13.86 4.68 8.79 0.12 6.3 0.12 11.37 4.57 13.95 4.57 13.85"/><polygon class="cls-5" points="11.23 5.67 15.77 8.15 20.1 5.68 15.66 3.1 11.23 5.67"/><polygon class="cls-5" points="16.21 8.91 16.11 14.07 20.54 11.49 20.54 6.44 16.21 8.91"/><polygon class="cls-5" points="10.01 17.83 5.45 15.34 5.45 20.41 9.9 23 10 18.26 10.01 17.83"/><polygon class="cls-5" points="15.21 20.41 15.21 15.36 10.89 17.83 10.79 22.98 15.21 20.41"/></g></g></svg>